<svg width="30" height="30" viewBox="0 0 30 30" fill="none" xmlns="http://www.w3.org/2000/svg">
<g filter="url(#filter0_di)">
<path d="M23 7H7C5.89543 7 5 7.89543 5 9V19C5 20.1046 5.89543 21 7 21H23C24.1046 21 25 20.1046 25 19V9C25 7.89543 24.1046 7 23 7Z" stroke="url(#paint0_linear)" stroke-width="2" stroke-linecap="round" stroke-linejoin="round"/>
<path d="M19 21V5C19 4.46957 18.7893 3.96086 18.4142 3.58579C18.0391 3.21071 17.5304 3 17 3H13C12.4696 3 11.9609 3.21071 11.5858 3.58579C11.2107 3.96086 11 4.46957 11 5V21" stroke="url(#paint1_linear)" stroke-width="2" stroke-linecap="round" stroke-linejoin="round"/>
</g>
<defs>
<filter id="filter0_di" x="-1" y="0" width="32" height="32" filterUnits="userSpaceOnUse" color-interpolation-filters="sRGB">
<feFlood flood-opacity="0" result="BackgroundImageFix"/>
<feColorMatrix in="SourceAlpha" type="matrix" values="0 0 0 0 0 0 0 0 0 0 0 0 0 0 0 0 0 0 127 0"/>
<feOffset dy="4"/>
<feGaussianBlur stdDeviation="2"/>
<feColorMatrix type="matrix" values="0 0 0 0 0 0 0 0 0 0 0 0 0 0 0 0 0 0 0.05 0"/>
<feBlend mode="normal" in2="BackgroundImageFix" result="effect1_dropShadow"/>
<feBlend mode="normal" in="SourceGraphic" in2="effect1_dropShadow" result="shape"/>
<feColorMatrix in="SourceAlpha" type="matrix" values="0 0 0 0 0 0 0 0 0 0 0 0 0 0 0 0 0 0 127 0" result="hardAlpha"/>
<feOffset dy="2"/>
<feGaussianBlur stdDeviation="1"/>
<feComposite in2="hardAlpha" operator="arithmetic" k2="-1" k3="1"/>
<feColorMatrix type="matrix" values="0 0 0 0 0.983333 0 0 0 0 0.983333 0 0 0 0 0.983333 0 0 0 0.2 0"/>
<feBlend mode="normal" in2="shape" result="effect2_innerShadow"/>
</filter>
<linearGradient id="paint0_linear" x1="15" y1="7" x2="15" y2="21" gradientUnits="userSpaceOnUse">
<stop stop-color="#FFD232"/>
<stop offset="1" stop-color="#E8A119"/>
</linearGradient>
<linearGradient id="paint1_linear" x1="15" y1="3" x2="15" y2="21" gradientUnits="userSpaceOnUse">
<stop stop-color="#FFD232"/>
<stop offset="1" stop-color="#E8A119"/>
</linearGradient>
</defs>
</svg>
