<svg width="30" height="31" viewBox="0 0 30 31" fill="none" xmlns="http://www.w3.org/2000/svg">
<g filter="url(#filter0_di)">
<path d="M15 22C20.5228 22 25 17.5228 25 12C25 6.47715 20.5228 2 15 2C9.47715 2 5 6.47715 5 12C5 17.5228 9.47715 22 15 22Z" stroke="url(#paint0_linear)" stroke-width="2" stroke-linecap="round" stroke-linejoin="round"/>
<path d="M12.0901 9.00002C12.3252 8.33169 12.7892 7.76813 13.4 7.40915C14.0108 7.05018 14.729 6.91896 15.4273 7.03873C16.1255 7.15851 16.7589 7.52154 17.2152 8.06355C17.6714 8.60555 17.9211 9.29154 17.9201 10C17.9201 12 14.9201 13 14.9201 13" stroke="url(#paint1_linear)" stroke-width="2" stroke-linecap="round" stroke-linejoin="round"/>
<path d="M15 17H15.01" stroke="url(#paint2_linear)" stroke-width="2" stroke-linecap="round" stroke-linejoin="round"/>
</g>
<defs>
<filter id="filter0_di" x="-1" y="0" width="32" height="32" filterUnits="userSpaceOnUse" color-interpolation-filters="sRGB">
<feFlood flood-opacity="0" result="BackgroundImageFix"/>
<feColorMatrix in="SourceAlpha" type="matrix" values="0 0 0 0 0 0 0 0 0 0 0 0 0 0 0 0 0 0 127 0"/>
<feOffset dy="4"/>
<feGaussianBlur stdDeviation="2"/>
<feColorMatrix type="matrix" values="0 0 0 0 0 0 0 0 0 0 0 0 0 0 0 0 0 0 0.05 0"/>
<feBlend mode="normal" in2="BackgroundImageFix" result="effect1_dropShadow"/>
<feBlend mode="normal" in="SourceGraphic" in2="effect1_dropShadow" result="shape"/>
<feColorMatrix in="SourceAlpha" type="matrix" values="0 0 0 0 0 0 0 0 0 0 0 0 0 0 0 0 0 0 127 0" result="hardAlpha"/>
<feOffset dy="2"/>
<feGaussianBlur stdDeviation="1"/>
<feComposite in2="hardAlpha" operator="arithmetic" k2="-1" k3="1"/>
<feColorMatrix type="matrix" values="0 0 0 0 0.983333 0 0 0 0 0.983333 0 0 0 0 0.983333 0 0 0 0.2 0"/>
<feBlend mode="normal" in2="shape" result="effect2_innerShadow"/>
</filter>
<linearGradient id="paint0_linear" x1="15" y1="2" x2="15" y2="22" gradientUnits="userSpaceOnUse">
<stop stop-color="#FFD232"/>
<stop offset="1" stop-color="#E8A119"/>
</linearGradient>
<linearGradient id="paint1_linear" x1="15.0051" y1="6.99554" x2="15.0051" y2="13" gradientUnits="userSpaceOnUse">
<stop stop-color="#FFD232"/>
<stop offset="1" stop-color="#E8A119"/>
</linearGradient>
<linearGradient id="paint2_linear" x1="15.005" y1="17" x2="15.005" y2="18" gradientUnits="userSpaceOnUse">
<stop stop-color="#FFD232"/>
<stop offset="1" stop-color="#E8A119"/>
</linearGradient>
</defs>
</svg>
